<?xml version="1.0" encoding="UTF-8" standalone="no"?>
<svg
   viewBox="0 0 36 36"
   version="1.1"
   id="svg44"
   sodipodi:docname="ope.svg"
   inkscape:version="1.2.1 (9c6d41e410, 2022-07-14, custom)"
   inkscape:export-filename="ope_print.png"
   inkscape:export-xdpi="8533.333"
   inkscape:export-ydpi="8533.333"
   xmlns:inkscape="http://www.inkscape.org/namespaces/inkscape"
   xmlns:sodipodi="http://sodipodi.sourceforge.net/DTD/sodipodi-0.dtd"
   xmlns="http://www.w3.org/2000/svg"
   xmlns:svg="http://www.w3.org/2000/svg">
  <defs
     id="defs48" />
  <sodipodi:namedview
     id="namedview46"
     pagecolor="#ffffff"
     bordercolor="#000000"
     borderopacity="0.25"
     inkscape:showpageshadow="2"
     inkscape:pageopacity="0.0"
     inkscape:pagecheckerboard="0"
     inkscape:deskcolor="#d1d1d1"
     showgrid="false"
     showguides="false"
     inkscape:zoom="11.313709"
     inkscape:cx="33.543378"
     inkscape:cy="11.136932"
     inkscape:window-width="1920"
     inkscape:window-height="1011"
     inkscape:window-x="0"
     inkscape:window-y="0"
     inkscape:window-maximized="1"
     inkscape:current-layer="svg44" />
  <path
     id="path482"
     style="fill:#bb1a34;stroke-width:1.08867"
     d="m 9.3867188,6.7382812 c -0.105815,7.171e-4 -0.2140791,0.00371 -0.3222657,0.00977 -4.0215449,0.2275318 -7.4780556,3.8999951 -8.60156248,9.1386721 -0.64122626,2.989486 -0.31104442,5.398248 0.95507818,6.964843 0.8970636,1.110444 2.1990297,1.697266 3.765625,1.697266 0.1186649,0 0.2393971,-0.003 0.3613281,-0.01172 4.0237221,-0.22862 7.4819631,-3.902173 8.6054691,-9.138671 0.09677,-0.451183 0.154385,-1.18255 0.207,-1.606354 -1.039465,0.02243 -2.188283,-0.952595 -2.193329,-2.04599 C 12.16465,10.807695 12.83017,9.9530026 13.875,9.5488281 13.690437,9.1408546 13.463293,8.7675876 13.193359,8.4335938 12.288062,7.3139653 10.973943,6.7275248 9.3867188,6.7382812 Z M 8.9003906,9.5839844 c 0.5813494,0 1.0410354,0.2037497 1.3632814,0.6054686 0.709813,0.879644 0.813351,2.699445 0.292969,5.125 -0.8317445,3.878928 -2.5872005,6.264192 -4.6992191,6.382813 l -0.1542969,0.0059 c -0.5791721,0 -1.0360402,-0.204839 -1.359375,-0.605469 C 3.6328489,20.218011 3.5284441,18.400165 4.0488281,15.974609 4.8816602,12.096769 6.6399344,9.7087329 8.7519531,9.5878906 Z"
     sodipodi:nodetypes="scccsccccccsccccccccc" />
  <path
     id="path42"
     style="fill:#bb1a34;fill-opacity:1;stroke-width:0.956072"
     d="m 34.085938,19.703125 c -0.0329,3.5e-4 -0.06636,-1.08e-4 -0.09961,0.002 -5.786161,1.244282 -11.936854,2.541784 -16.470947,3.38501 l -0.53125,2.697266 c 4.585652,-0.886281 10.989487,-1.934793 17.203369,-2.261963 1.054546,-0.05545 1.866957,-0.957173 1.810547,-2.011719 -0.05372,-1.021592 -0.89236,-1.821411 -1.912109,-1.810547 z m -20.925782,4.074219 c -6.1933704,1.09661 -10.0760927,1.689858 -10.3535154,1.791015 -0.9857094,0.377648 -1.4762604,1.483041 -1.0976562,2.46875 0.2916017,0.760078 1.016475,1.226563 1.7851562,1.226563 0.227545,0 0.458917,-0.04186 0.6835938,-0.126953 0.060848,-0.02329 3.1275494,-1.180259 8.3593746,-2.453125 z m 17.998047,3.574218 c -0.03262,0.0012 -0.06476,0.003 -0.09766,0.0059 -11.603837,0.967544 -19.312569,3.818988 -19.634766,3.939453 -0.988577,0.370956 -1.490096,1.474314 -1.11914,2.462891 0.287777,0.767725 1.016598,1.242187 1.791015,1.242187 0.222765,0 0.450025,-0.04082 0.669922,-0.123047 0.07457,-0.02773 7.528509,-2.78542 18.609375,-3.708984 1.051678,-0.08796 1.836007,-1.011819 1.748047,-2.064453 -0.08521,-1.018814 -0.955541,-1.790201 -1.966797,-1.753907 z"
     sodipodi:nodetypes="scccccscccscccscccscccs" />
  <path
     id="path312"
     style="fill:#bb1a34;stroke:none;stroke-width:1.38344;stroke-dasharray:none;stroke-opacity:1;paint-order:markers stroke fill"
     d="m 18.200143,9.8109296 c -0.17911,-0.023855 -3.499137,0.2420824 -3.499137,0.2420824 -0.837706,0.04595 -1.619867,0.671105 -1.780142,1.421193 -0.08335,0.383592 7.5e-4,0.754914 0.235821,1.045546 0.251099,0.310934 0.651738,0.490426 1.204153,0.490426 h 0.0146 l 1.830229,-0.102253 -2.913342,13.575416 c -0.129803,1.013347 0.08257,1.622034 0.792403,1.744737 0.709833,0.122703 1.793198,-0.704112 1.993009,-1.648667 l 1.220847,-5.68477 c 0.553497,0.476017 1.267479,0.724162 2.093182,0.724162 0.07776,0 0.158012,-5.98e-4 0.237909,-0.0063 2.636565,-0.149764 4.900585,-2.558174 5.636769,-5.98942 0.420167,-1.958879 0.203559,-3.535487 -0.626075,-4.562008 -0.632747,-0.782552 -1.570411,-1.1695566 -2.704648,-1.1060672 -0.885433,0.050091 -1.72962,0.3549832 -2.487609,0.8681582 0.0188,-0.192957 0.0063,-0.464883 -0.179476,-0.694944 C 18.978874,9.7488961 18.379253,9.8347851 18.200143,9.8109296 Z m 4.522061,3.1718874 c 0.510262,0.572323 0.62812,1.81502 0.256985,3.285061 -0.272633,1.113379 -1.074287,2.336946 -2.468957,2.446192 -2.351705,0.242334 -2.437697,-1.771349 -2.089565,-3.358063 0.327575,-1.395175 1.452425,-2.696929 2.319362,-2.845218 0.866938,-0.14829 1.471913,-0.100293 1.982175,0.472028 z"
     sodipodi:nodetypes="zcccsccczccscccccczzccczz" />
  <path
     id="path445"
     style="fill:#bb1a34;stroke-width:0.686566"
     d="m 30.434676,9.0169732 c -1.411264,0.3491311 -3.638009,2.5152598 -4.36016,5.7605298 -0.411761,1.85155 0.267861,3.461976 1.080896,4.432255 0.576742,0.688431 1.326546,0.892401 2.332525,0.892401 0.0755,0 0.152458,-0.0013 0.230756,-0.0068 1.631378,-0.09067 3.520483,-1.478646 4.172655,-2.528521 0.652172,-1.049875 -0.01179,-1.529088 -0.74646,-1.544996 -0.734672,-0.01591 -1.710495,0.881249 -1.710495,0.881249 -0.764092,0.773472 -2.055508,0.898009 -2.406941,0.703779 -0.351433,-0.194231 -0.875364,-1.335337 -0.541203,-2.83829 0.534098,-2.40108 1.693757,-3.760781 2.676745,-3.914586 1.126715,-0.07326 2.155371,0.49343 1.887654,1.594168 -0.267716,1.100738 -2.163938,1.475339 -2.936542,1.514582 -0.772603,0.03924 -1.171971,1.020504 -1.168001,1.405029 0.004,0.384525 0.493485,0.823943 1.372342,0.711728 0.878856,-0.112215 2.823087,-0.570692 3.351016,-1.016459 0.52793,-0.445766 1.200389,-1.239016 1.390528,-2.064414 0.190137,-0.825398 0.179792,-2.342582 -0.670535,-3.0361252 -0.850328,-0.6935263 -2.543517,-1.2947591 -3.95478,-0.9456281 z"
     sodipodi:nodetypes="zccsczzczcczzzzzzzzz" />
</svg>
